<?xml version="1.0" encoding="iso-8859-1"?>
<!-- Generator: Adobe Illustrator 19.0.0, SVG Export Plug-In . SVG Version: 6.00 Build 0)  -->
<svg version="1.1" id="Capa_1" xmlns="http://www.w3.org/2000/svg" xmlns:xlink="http://www.w3.org/1999/xlink" x="0px" y="0px"
	 viewBox="0 0 512 512" style="enable-background:new 0 0 512 512;" xml:space="preserve">
<path style="fill:#00C3FF;" d="M466.386,25.527H337.794H174.206H45.614c-6.291,0-11.391,5.1-11.391,11.39v287.831h443.553V36.917
	C477.777,30.626,472.677,25.527,466.386,25.527z"/>
<path style="fill:#00AAF0;" d="M66.027,25.527H45.614c-6.291,0-11.391,5.1-11.391,11.39v287.831h20.413V36.917
	C54.636,30.626,59.736,25.527,66.027,25.527z"/>
<path style="fill:#7CE854;" d="M215.543,141.505c-5.319-7.153-13.943-7.153-19.262,0L60.021,324.748h148.326l71.728-96.46
	L215.543,141.505z"/>
<path style="fill:#6FD844;" d="M215.543,141.505c-5.319-7.153-13.943-7.153-19.262,0L60.021,324.748h23.087l134.347-180.671
	L215.543,141.505z"/>
<path style="fill:#9BF57D;" d="M453.377,324.748L338.473,170.224c-4.485-6.032-11.758-6.032-16.243,0L207.326,324.748H453.377z"/>
<path style="fill:#7CE854;" d="M338.473,170.224c-4.485-6.032-11.758-6.032-16.243,0L207.326,324.748h26.896L343.8,177.387
	L338.473,170.224z"/>
<circle style="fill:#FFC850;" cx="282.19" cy="117.91" r="33.983"/>
<path style="fill:#F9B428;" d="M268.623,117.905c0-15.212,9.996-28.087,23.776-32.421c-3.222-1.013-6.65-1.562-10.207-1.562
	c-18.768,0-33.983,15.215-33.983,33.983s15.215,33.983,33.983,33.983c3.557,0,6.985-0.549,10.207-1.562
	C278.619,145.992,268.623,133.116,268.623,117.905z"/>
<g>
	<polygon style="fill:#AD7B64;" points="434.76,502.303 386.57,370.697 332.203,370.697 380.393,502.303 	"/>
	<rect x="230.47" y="370.7" style="fill:#AD7B64;" width="51.05" height="131.61"/>
	<polygon style="fill:#AD7B64;" points="179.797,370.697 125.43,370.697 77.24,502.303 131.607,502.303 	"/>
</g>
<g>
	<polygon style="fill:#9E6B57;" points="332.203,370.697 380.393,502.303 401.571,502.303 353.381,370.697 	"/>
	<rect x="230.47" y="370.7" style="fill:#9E6B57;" width="21.18" height="131.61"/>
	<polygon style="fill:#9E6B57;" points="125.43,370.697 77.24,502.303 98.418,502.303 146.608,370.697 	"/>
	<path style="fill:#9E6B57;" d="M489.854,321.686H22.146c-10.869,0-19.762,8.893-19.762,19.762v11.528
		c0,10.869,8.893,19.762,19.762,19.762h467.707c10.869,0,19.762-8.893,19.762-19.762v-11.528
		C509.616,330.579,500.723,321.686,489.854,321.686z"/>
</g>
<path style="fill:#8C5A4B;" d="M489.854,352.325H22.146c-9.341,0-17.205-6.574-19.236-15.32c-0.333,1.431-0.526,2.914-0.526,4.443
	v11.528c0,10.869,8.893,19.762,19.762,19.762h467.708c10.869,0,19.762-8.893,19.762-19.762v-11.528c0-1.529-0.193-3.011-0.526-4.443
	C507.058,345.751,499.194,352.325,489.854,352.325z"/>
<path style="fill:#9E6B57;" d="M318.032,0H193.968c-10.869,0-19.762,8.893-19.762,19.762V31.29c0,10.869,8.893,19.762,19.762,19.762
	h124.063c10.869,0,19.762-8.893,19.762-19.762V19.762C337.794,8.893,328.901,0,318.032,0z"/>
<path style="fill:#8C5A4B;" d="M318.032,30.64H193.968c-9.341,0-17.205-6.574-19.237-15.32c-0.332,1.431-0.526,2.914-0.526,4.443
	V31.29c0,10.869,8.893,19.762,19.762,19.762H318.03c10.869,0,19.762-8.893,19.762-19.762V19.762c0-1.529-0.193-3.011-0.526-4.443
	C335.236,24.065,327.372,30.64,318.032,30.64z"/>
<path style="fill:#E4EAF8;" d="M477.777,512H34.223c-4.228,0-7.655-3.427-7.655-7.655s3.427-7.655,7.655-7.655h443.554
	c4.228,0,7.655,3.427,7.655,7.655C485.432,508.573,482.005,512,477.777,512z"/>
<g>
</g>
<g>
</g>
<g>
</g>
<g>
</g>
<g>
</g>
<g>
</g>
<g>
</g>
<g>
</g>
<g>
</g>
<g>
</g>
<g>
</g>
<g>
</g>
<g>
</g>
<g>
</g>
<g>
</g>
</svg>
