<?xml version="1.0" encoding="iso-8859-1"?>
<!-- Generator: Adobe Illustrator 21.0.0, SVG Export Plug-In . SVG Version: 6.00 Build 0)  -->
<svg version="1.1" id="Capa_1" xmlns="http://www.w3.org/2000/svg" xmlns:xlink="http://www.w3.org/1999/xlink" x="0px" y="0px"
	 viewBox="0 0 512 512" style="enable-background:new 0 0 512 512;" xml:space="preserve">
<path style="fill:#A6E2E3;" d="M498.932,482.376l-16.56,16.56c-5.081,5.081-13.319,5.081-18.4,0L200.859,235.822v-0.013v-33.063
	l34.96-1.884l263.113,263.113C504.013,469.057,504.013,477.295,498.932,482.376z"/>
<path style="fill:#FFA638;" d="M235.819,200.863l-34.96,34.947v0.013l-61.645-61.645c-9.654-9.654-9.654-25.306,0-34.96
	c4.827-4.827,11.15-7.247,17.473-7.247c6.336,0,12.659,2.42,17.486,7.247L235.819,200.863z"/>
<path d="M162,70.914c4.142,0,7.5-3.358,7.5-7.5V7.5c0-4.142-3.358-7.5-7.5-7.5s-7.5,3.358-7.5,7.5v55.914
	C154.5,67.556,157.857,70.914,162,70.914z"/>
<path d="M162,253.085c-4.142,0-7.5,3.358-7.5,7.5v55.914c0,4.142,3.358,7.5,7.5,7.5s7.5-3.358,7.5-7.5v-55.914
	C169.5,256.443,166.142,253.085,162,253.085z"/>
<path d="M58.055,47.449c-2.929-2.929-7.678-2.929-10.606,0c-2.929,2.929-2.929,7.677,0,10.606l39.537,39.537
	c1.464,1.465,3.384,2.197,5.303,2.197s3.839-0.732,5.303-2.197c2.929-2.929,2.929-7.677,0-10.606L58.055,47.449z"/>
<path d="M70.914,162c0-4.142-3.358-7.5-7.5-7.5H7.5c-4.142,0-7.5,3.358-7.5,7.5s3.358,7.5,7.5,7.5h55.914
	C67.556,169.5,70.914,166.142,70.914,162z"/>
<path d="M253.085,162c0,4.142,3.358,7.5,7.5,7.5h55.914c4.142,0,7.5-3.358,7.5-7.5s-3.358-7.5-7.5-7.5h-55.914
	C256.443,154.5,253.085,157.858,253.085,162z"/>
<path d="M86.986,226.407l-39.537,39.537c-2.929,2.929-2.929,7.678,0,10.606c1.464,1.464,3.384,2.197,5.303,2.197
	s3.839-0.732,5.303-2.197l39.537-39.537c2.929-2.929,2.929-7.678,0-10.606C94.664,223.478,89.915,223.478,86.986,226.407z"/>
<path d="M231.71,99.789c1.919,0,3.839-0.732,5.303-2.197l39.537-39.537c2.929-2.929,2.929-7.677,0-10.606s-7.678-2.929-10.606,0
	l-39.537,39.537c-2.929,2.929-2.929,7.677,0,10.606C227.871,99.057,229.791,99.789,231.71,99.789z"/>
<path d="M509.803,464.409L177.497,132.103c-12.516-12.514-32.879-12.514-45.394,0c-12.515,12.515-12.515,32.879,0,45.393
	L426.38,471.773c2.929,2.929,7.678,2.929,10.606,0c2.929-2.929,2.929-7.678,0-10.606L209.348,233.528l24.181-24.181l260.365,260.365
	l-24.182,24.181l-13.054-13.05c-2.929-2.928-7.678-2.928-10.606,0.002c-2.928,2.929-2.928,7.678,0.002,10.606l18.357,18.352
	c1.464,1.464,3.383,2.196,5.302,2.196s3.839-0.732,5.303-2.197l34.787-34.787C512.732,472.087,512.732,467.338,509.803,464.409z
	 M198.742,222.922L142.71,166.89c-6.667-6.667-6.667-17.514,0-24.18c6.666-6.667,17.514-6.666,24.181,0l56.031,56.031
	L198.742,222.922z"/>
<g>
</g>
<g>
</g>
<g>
</g>
<g>
</g>
<g>
</g>
<g>
</g>
<g>
</g>
<g>
</g>
<g>
</g>
<g>
</g>
<g>
</g>
<g>
</g>
<g>
</g>
<g>
</g>
<g>
</g>
</svg>
